%TF.GenerationSoftware,KiCad,Pcbnew,10.0.3*%
%TF.CreationDate,2026-06-03T23:53:22+01:00*%
%TF.ProjectId,Pcb_Spotify,5063625f-5370-46f7-9469-66792e6b6963,rev?*%
%TF.SameCoordinates,Original*%
%TF.FileFunction,Legend,Top*%
%TF.FilePolarity,Positive*%
%FSLAX46Y46*%
G04 Gerber Fmt 4.6, Leading zero omitted, Abs format (unit mm)*
G04 Created by KiCad (PCBNEW 10.0.3) date 2026-06-03 23:53:22*
%MOMM*%
%LPD*%
G01*
G04 APERTURE LIST*
%ADD10C,0.150000*%
%ADD11C,0.120000*%
G04 APERTURE END LIST*
D10*
X96066666Y-61884819D02*
X96066666Y-62599104D01*
X96066666Y-62599104D02*
X96019047Y-62741961D01*
X96019047Y-62741961D02*
X95923809Y-62837200D01*
X95923809Y-62837200D02*
X95780952Y-62884819D01*
X95780952Y-62884819D02*
X95685714Y-62884819D01*
X96495238Y-61980057D02*
X96542857Y-61932438D01*
X96542857Y-61932438D02*
X96638095Y-61884819D01*
X96638095Y-61884819D02*
X96876190Y-61884819D01*
X96876190Y-61884819D02*
X96971428Y-61932438D01*
X96971428Y-61932438D02*
X97019047Y-61980057D01*
X97019047Y-61980057D02*
X97066666Y-62075295D01*
X97066666Y-62075295D02*
X97066666Y-62170533D01*
X97066666Y-62170533D02*
X97019047Y-62313390D01*
X97019047Y-62313390D02*
X96447619Y-62884819D01*
X96447619Y-62884819D02*
X97066666Y-62884819D01*
X119666666Y-104684819D02*
X119666666Y-105399104D01*
X119666666Y-105399104D02*
X119619047Y-105541961D01*
X119619047Y-105541961D02*
X119523809Y-105637200D01*
X119523809Y-105637200D02*
X119380952Y-105684819D01*
X119380952Y-105684819D02*
X119285714Y-105684819D01*
X120047619Y-104684819D02*
X120666666Y-104684819D01*
X120666666Y-104684819D02*
X120333333Y-105065771D01*
X120333333Y-105065771D02*
X120476190Y-105065771D01*
X120476190Y-105065771D02*
X120571428Y-105113390D01*
X120571428Y-105113390D02*
X120619047Y-105161009D01*
X120619047Y-105161009D02*
X120666666Y-105256247D01*
X120666666Y-105256247D02*
X120666666Y-105494342D01*
X120666666Y-105494342D02*
X120619047Y-105589580D01*
X120619047Y-105589580D02*
X120571428Y-105637200D01*
X120571428Y-105637200D02*
X120476190Y-105684819D01*
X120476190Y-105684819D02*
X120190476Y-105684819D01*
X120190476Y-105684819D02*
X120095238Y-105637200D01*
X120095238Y-105637200D02*
X120047619Y-105589580D01*
X110834819Y-71833333D02*
X111549104Y-71833333D01*
X111549104Y-71833333D02*
X111691961Y-71880952D01*
X111691961Y-71880952D02*
X111787200Y-71976190D01*
X111787200Y-71976190D02*
X111834819Y-72119047D01*
X111834819Y-72119047D02*
X111834819Y-72214285D01*
X111168152Y-70928571D02*
X111834819Y-70928571D01*
X110787200Y-71166666D02*
X111501485Y-71404761D01*
X111501485Y-71404761D02*
X111501485Y-70785714D01*
X66414819Y-134833333D02*
X67129104Y-134833333D01*
X67129104Y-134833333D02*
X67271961Y-134880952D01*
X67271961Y-134880952D02*
X67367200Y-134976190D01*
X67367200Y-134976190D02*
X67414819Y-135119047D01*
X67414819Y-135119047D02*
X67414819Y-135214285D01*
X66414819Y-133928571D02*
X66414819Y-134119047D01*
X66414819Y-134119047D02*
X66462438Y-134214285D01*
X66462438Y-134214285D02*
X66510057Y-134261904D01*
X66510057Y-134261904D02*
X66652914Y-134357142D01*
X66652914Y-134357142D02*
X66843390Y-134404761D01*
X66843390Y-134404761D02*
X67224342Y-134404761D01*
X67224342Y-134404761D02*
X67319580Y-134357142D01*
X67319580Y-134357142D02*
X67367200Y-134309523D01*
X67367200Y-134309523D02*
X67414819Y-134214285D01*
X67414819Y-134214285D02*
X67414819Y-134023809D01*
X67414819Y-134023809D02*
X67367200Y-133928571D01*
X67367200Y-133928571D02*
X67319580Y-133880952D01*
X67319580Y-133880952D02*
X67224342Y-133833333D01*
X67224342Y-133833333D02*
X66986247Y-133833333D01*
X66986247Y-133833333D02*
X66891009Y-133880952D01*
X66891009Y-133880952D02*
X66843390Y-133928571D01*
X66843390Y-133928571D02*
X66795771Y-134023809D01*
X66795771Y-134023809D02*
X66795771Y-134214285D01*
X66795771Y-134214285D02*
X66843390Y-134309523D01*
X66843390Y-134309523D02*
X66891009Y-134357142D01*
X66891009Y-134357142D02*
X66986247Y-134404761D01*
X113604819Y-91333333D02*
X114319104Y-91333333D01*
X114319104Y-91333333D02*
X114461961Y-91380952D01*
X114461961Y-91380952D02*
X114557200Y-91476190D01*
X114557200Y-91476190D02*
X114604819Y-91619047D01*
X114604819Y-91619047D02*
X114604819Y-91714285D01*
X113604819Y-90380952D02*
X113604819Y-90857142D01*
X113604819Y-90857142D02*
X114081009Y-90904761D01*
X114081009Y-90904761D02*
X114033390Y-90857142D01*
X114033390Y-90857142D02*
X113985771Y-90761904D01*
X113985771Y-90761904D02*
X113985771Y-90523809D01*
X113985771Y-90523809D02*
X114033390Y-90428571D01*
X114033390Y-90428571D02*
X114081009Y-90380952D01*
X114081009Y-90380952D02*
X114176247Y-90333333D01*
X114176247Y-90333333D02*
X114414342Y-90333333D01*
X114414342Y-90333333D02*
X114509580Y-90380952D01*
X114509580Y-90380952D02*
X114557200Y-90428571D01*
X114557200Y-90428571D02*
X114604819Y-90523809D01*
X114604819Y-90523809D02*
X114604819Y-90761904D01*
X114604819Y-90761904D02*
X114557200Y-90857142D01*
X114557200Y-90857142D02*
X114509580Y-90904761D01*
X70666666Y-61364819D02*
X70666666Y-62079104D01*
X70666666Y-62079104D02*
X70619047Y-62221961D01*
X70619047Y-62221961D02*
X70523809Y-62317200D01*
X70523809Y-62317200D02*
X70380952Y-62364819D01*
X70380952Y-62364819D02*
X70285714Y-62364819D01*
X71666666Y-62364819D02*
X71095238Y-62364819D01*
X71380952Y-62364819D02*
X71380952Y-61364819D01*
X71380952Y-61364819D02*
X71285714Y-61507676D01*
X71285714Y-61507676D02*
X71190476Y-61602914D01*
X71190476Y-61602914D02*
X71095238Y-61650533D01*
%TO.C,J2*%
D11*
X97730000Y-66470000D02*
X97730000Y-119870000D01*
X97730000Y-63870000D02*
X97730000Y-65200000D01*
X96400000Y-63870000D02*
X97730000Y-63870000D01*
X95070000Y-119870000D02*
X97730000Y-119870000D01*
X95070000Y-66470000D02*
X97730000Y-66470000D01*
X95070000Y-66470000D02*
X95070000Y-119870000D01*
%TO.C,J3*%
X118670000Y-109270000D02*
X118670000Y-127110000D01*
X118670000Y-109270000D02*
X121330000Y-109270000D01*
X118670000Y-127110000D02*
X121330000Y-127110000D01*
X120000000Y-106670000D02*
X121330000Y-106670000D01*
X121330000Y-106670000D02*
X121330000Y-108000000D01*
X121330000Y-109270000D02*
X121330000Y-127110000D01*
%TO.C,J4*%
X115420000Y-70170000D02*
X128180000Y-70170000D01*
X112820000Y-70170000D02*
X114150000Y-70170000D01*
X112820000Y-71500000D02*
X112820000Y-70170000D01*
X128180000Y-72830000D02*
X128180000Y-70170000D01*
X115420000Y-72830000D02*
X115420000Y-70170000D01*
X115420000Y-72830000D02*
X128180000Y-72830000D01*
%TO.C,J6*%
X71000000Y-135830000D02*
X73600000Y-135830000D01*
X71000000Y-135830000D02*
X71000000Y-133170000D01*
X73600000Y-135830000D02*
X73600000Y-133170000D01*
X68400000Y-134500000D02*
X68400000Y-133170000D01*
X68400000Y-133170000D02*
X69730000Y-133170000D01*
X71000000Y-133170000D02*
X73600000Y-133170000D01*
%TO.C,J5*%
X118190000Y-92330000D02*
X123330000Y-92330000D01*
X118190000Y-92330000D02*
X118190000Y-89670000D01*
X123330000Y-92330000D02*
X123330000Y-89670000D01*
X115590000Y-91000000D02*
X115590000Y-89670000D01*
X115590000Y-89670000D02*
X116920000Y-89670000D01*
X118190000Y-89670000D02*
X123330000Y-89670000D01*
%TO.C,J1*%
X69670000Y-65950000D02*
X69670000Y-119350000D01*
X69670000Y-65950000D02*
X72330000Y-65950000D01*
X69670000Y-119350000D02*
X72330000Y-119350000D01*
X71000000Y-63350000D02*
X72330000Y-63350000D01*
X72330000Y-63350000D02*
X72330000Y-64680000D01*
X72330000Y-65950000D02*
X72330000Y-119350000D01*
%TD*%
M02*
