%TF.GenerationSoftware,KiCad,Pcbnew,10.0.3*%
%TF.CreationDate,2026-06-03T23:53:22+01:00*%
%TF.ProjectId,Pcb_Spotify,5063625f-5370-46f7-9469-66792e6b6963,rev?*%
%TF.SameCoordinates,Original*%
%TF.FileFunction,Soldermask,Bot*%
%TF.FilePolarity,Negative*%
%FSLAX46Y46*%
G04 Gerber Fmt 4.6, Leading zero omitted, Abs format (unit mm)*
G04 Created by KiCad (PCBNEW 10.0.3) date 2026-06-03 23:53:22*
%MOMM*%
%LPD*%
G01*
G04 APERTURE LIST*
%ADD10C,1.700000*%
%ADD11R,1.700000X1.700000*%
G04 APERTURE END LIST*
D10*
%TO.C,J2*%
X96400000Y-118540000D03*
X96400000Y-116000000D03*
X96400000Y-113460000D03*
X96400000Y-110920000D03*
X96400000Y-108380000D03*
X96400000Y-105840000D03*
X96400000Y-103300000D03*
X96400000Y-100760000D03*
X96400000Y-98220000D03*
X96400000Y-95680000D03*
X96400000Y-93140000D03*
X96400000Y-90600000D03*
X96400000Y-88060000D03*
X96400000Y-85520000D03*
X96400000Y-82980000D03*
X96400000Y-80440000D03*
X96400000Y-77900000D03*
X96400000Y-75360000D03*
X96400000Y-72820000D03*
X96400000Y-70280000D03*
X96400000Y-67740000D03*
D11*
X96400000Y-65200000D03*
%TD*%
%TO.C,J3*%
X120000000Y-108000000D03*
D10*
X120000000Y-110540000D03*
X120000000Y-113080000D03*
X120000000Y-115620000D03*
X120000000Y-118160000D03*
X120000000Y-120700000D03*
X120000000Y-123240000D03*
X120000000Y-125780000D03*
%TD*%
%TO.C,J4*%
X126850000Y-71500000D03*
X124310000Y-71500000D03*
X121770000Y-71500000D03*
X119230000Y-71500000D03*
X116690000Y-71500000D03*
D11*
X114150000Y-71500000D03*
%TD*%
%TO.C,J6*%
X69730000Y-134500000D03*
D10*
X72270000Y-134500000D03*
%TD*%
D11*
%TO.C,J5*%
X116920000Y-91000000D03*
D10*
X119460000Y-91000000D03*
X122000000Y-91000000D03*
%TD*%
D11*
%TO.C,J1*%
X71000000Y-64680000D03*
D10*
X71000000Y-67220000D03*
X71000000Y-69760000D03*
X71000000Y-72300000D03*
X71000000Y-74840000D03*
X71000000Y-77380000D03*
X71000000Y-79920000D03*
X71000000Y-82460000D03*
X71000000Y-85000000D03*
X71000000Y-87540000D03*
X71000000Y-90080000D03*
X71000000Y-92620000D03*
X71000000Y-95160000D03*
X71000000Y-97700000D03*
X71000000Y-100240000D03*
X71000000Y-102780000D03*
X71000000Y-105320000D03*
X71000000Y-107860000D03*
X71000000Y-110400000D03*
X71000000Y-112940000D03*
X71000000Y-115480000D03*
X71000000Y-118020000D03*
%TD*%
M02*
