%TF.GenerationSoftware,KiCad,Pcbnew,10.0.3*%
%TF.CreationDate,2026-06-03T23:53:22+01:00*%
%TF.ProjectId,Pcb_Spotify,5063625f-5370-46f7-9469-66792e6b6963,rev?*%
%TF.SameCoordinates,Original*%
%TF.FileFunction,Copper,L2,Bot*%
%TF.FilePolarity,Positive*%
%FSLAX46Y46*%
G04 Gerber Fmt 4.6, Leading zero omitted, Abs format (unit mm)*
G04 Created by KiCad (PCBNEW 10.0.3) date 2026-06-03 23:53:22*
%MOMM*%
%LPD*%
G01*
G04 APERTURE LIST*
%TA.AperFunction,ComponentPad*%
%ADD10C,1.700000*%
%TD*%
%TA.AperFunction,ComponentPad*%
%ADD11R,1.700000X1.700000*%
%TD*%
%TA.AperFunction,ViaPad*%
%ADD12C,0.600000*%
%TD*%
%TA.AperFunction,Conductor*%
%ADD13C,0.200000*%
%TD*%
G04 APERTURE END LIST*
D10*
%TO.P,J2,22,Pin_22_22*%
%TO.N,unconnected-(J2-Pin_22-Pad22)*%
X96400000Y-118540000D03*
%TO.P,J2,21,Pin_21_21*%
%TO.N,unconnected-(J2-Pin_21-Pad21)*%
X96400000Y-116000000D03*
%TO.P,J2,20,Pin_20_20*%
%TO.N,unconnected-(J2-Pin_20-Pad20)*%
X96400000Y-113460000D03*
%TO.P,J2,19,Pin_19_19*%
%TO.N,unconnected-(J2-Pin_19-Pad19)*%
X96400000Y-110920000D03*
%TO.P,J2,18,Pin_18_18*%
%TO.N,unconnected-(J2-Pin_18-Pad18)*%
X96400000Y-108380000D03*
%TO.P,J2,17,Pin_17_17*%
%TO.N,unconnected-(J2-Pin_17-Pad17)*%
X96400000Y-105840000D03*
%TO.P,J2,16,Pin_16_16*%
%TO.N,unconnected-(J2-Pin_16-Pad16)*%
X96400000Y-103300000D03*
%TO.P,J2,15,Pin_15_15*%
%TO.N,unconnected-(J2-Pin_15-Pad15)*%
X96400000Y-100760000D03*
%TO.P,J2,14,Pin_14_14*%
%TO.N,unconnected-(J2-Pin_14-Pad14)*%
X96400000Y-98220000D03*
%TO.P,J2,13,Pin_13_13*%
%TO.N,unconnected-(J2-Pin_13-Pad13)*%
X96400000Y-95680000D03*
%TO.P,J2,12,Pin_12_12*%
%TO.N,unconnected-(J2-Pin_12-Pad12)*%
X96400000Y-93140000D03*
%TO.P,J2,11,Pin_11_11*%
%TO.N,unconnected-(J2-Pin_11-Pad11)*%
X96400000Y-90600000D03*
%TO.P,J2,10,Pin_10_10*%
%TO.N,Net-(J2-Pin_10)*%
X96400000Y-88060000D03*
%TO.P,J2,9,Pin_9_9*%
%TO.N,unconnected-(J2-Pin_9-Pad9)*%
X96400000Y-85520000D03*
%TO.P,J2,8,Pin_8_8*%
%TO.N,unconnected-(J2-Pin_8-Pad8)*%
X96400000Y-82980000D03*
%TO.P,J2,7,Pin_7_7*%
%TO.N,unconnected-(J2-Pin_7-Pad7)*%
X96400000Y-80440000D03*
%TO.P,J2,6,Pin_6_6*%
%TO.N,unconnected-(J2-Pin_6-Pad6)*%
X96400000Y-77900000D03*
%TO.P,J2,5,Pin_5_5*%
%TO.N,unconnected-(J2-Pin_5-Pad5)*%
X96400000Y-75360000D03*
%TO.P,J2,4,Pin_4_4*%
%TO.N,unconnected-(J2-Pin_4-Pad4)*%
X96400000Y-72820000D03*
%TO.P,J2,3,Pin_3_3*%
%TO.N,unconnected-(J2-Pin_3-Pad3)*%
X96400000Y-70280000D03*
%TO.P,J2,2,Pin_2_2*%
%TO.N,unconnected-(J2-Pin_2-Pad2)*%
X96400000Y-67740000D03*
D11*
%TO.P,J2,1,Pin_1_1*%
%TO.N,unconnected-(J2-Pin_1-Pad1)*%
X96400000Y-65200000D03*
%TD*%
%TO.P,J3,1,Pin_1_1*%
%TO.N,+5V*%
X120000000Y-108000000D03*
D10*
%TO.P,J3,2,Pin_2_2*%
%TO.N,Net-(J1-Pin_15)*%
X120000000Y-110540000D03*
%TO.P,J3,3,Pin_3_3*%
%TO.N,GND*%
X120000000Y-113080000D03*
%TO.P,J3,4,Pin_4_4*%
%TO.N,unconnected-(J3-Pin_4-Pad4)*%
X120000000Y-115620000D03*
%TO.P,J3,5,Pin_5_5*%
%TO.N,Net-(J1-Pin_19)*%
X120000000Y-118160000D03*
%TO.P,J3,6,Pin_6_6*%
%TO.N,Net-(J1-Pin_17)*%
X120000000Y-120700000D03*
%TO.P,J3,7,Pin_7_7*%
%TO.N,Net-(J1-Pin_18)*%
X120000000Y-123240000D03*
%TO.P,J3,8,Pin_8_8*%
%TO.N,Net-(J1-Pin_16)*%
X120000000Y-125780000D03*
%TD*%
%TO.P,J4,6,Pin_6_6*%
%TO.N,Net-(J1-Pin_4)*%
X126850000Y-71500000D03*
%TO.P,J4,5,Pin_5_5*%
%TO.N,Net-(J1-Pin_5)*%
X124310000Y-71500000D03*
%TO.P,J4,4,Pin_4_4*%
%TO.N,Net-(J1-Pin_6)*%
X121770000Y-71500000D03*
%TO.P,J4,3,Pin_3_3*%
%TO.N,Net-(J1-Pin_7)*%
X119230000Y-71500000D03*
%TO.P,J4,2,Pin_2_2*%
%TO.N,+5V*%
X116690000Y-71500000D03*
D11*
%TO.P,J4,1,Pin_1_1*%
%TO.N,GND*%
X114150000Y-71500000D03*
%TD*%
%TO.P,J6,1,Pin_1_1*%
%TO.N,+5V*%
X69730000Y-134500000D03*
D10*
%TO.P,J6,2,Pin_2_2*%
%TO.N,GND*%
X72270000Y-134500000D03*
%TD*%
D11*
%TO.P,J5,1,Pin_1_1*%
%TO.N,Net-(J2-Pin_10)*%
X116920000Y-91000000D03*
D10*
%TO.P,J5,2,Pin_2_2*%
%TO.N,+5V*%
X119460000Y-91000000D03*
%TO.P,J5,3,Pin_3_3*%
%TO.N,GND*%
X122000000Y-91000000D03*
%TD*%
D11*
%TO.P,J1,1,Pin_1_1*%
%TO.N,unconnected-(J1-Pin_1-Pad1)*%
X71000000Y-64680000D03*
D10*
%TO.P,J1,2,Pin_2_2*%
%TO.N,unconnected-(J1-Pin_2-Pad2)*%
X71000000Y-67220000D03*
%TO.P,J1,3,Pin_3_3*%
%TO.N,unconnected-(J1-Pin_3-Pad3)*%
X71000000Y-69760000D03*
%TO.P,J1,4,Pin_4_4*%
%TO.N,Net-(J1-Pin_4)*%
X71000000Y-72300000D03*
%TO.P,J1,5,Pin_5_5*%
%TO.N,Net-(J1-Pin_5)*%
X71000000Y-74840000D03*
%TO.P,J1,6,Pin_6_6*%
%TO.N,Net-(J1-Pin_6)*%
X71000000Y-77380000D03*
%TO.P,J1,7,Pin_7_7*%
%TO.N,Net-(J1-Pin_7)*%
X71000000Y-79920000D03*
%TO.P,J1,8,Pin_8_8*%
%TO.N,unconnected-(J1-Pin_8-Pad8)*%
X71000000Y-82460000D03*
%TO.P,J1,9,Pin_9_9*%
%TO.N,unconnected-(J1-Pin_9-Pad9)*%
X71000000Y-85000000D03*
%TO.P,J1,10,Pin_10_10*%
%TO.N,unconnected-(J1-Pin_10-Pad10)*%
X71000000Y-87540000D03*
%TO.P,J1,11,Pin_11_11*%
%TO.N,unconnected-(J1-Pin_11-Pad11)*%
X71000000Y-90080000D03*
%TO.P,J1,12,Pin_12_12*%
%TO.N,unconnected-(J1-Pin_12-Pad12)*%
X71000000Y-92620000D03*
%TO.P,J1,13,Pin_13_13*%
%TO.N,unconnected-(J1-Pin_13-Pad13)*%
X71000000Y-95160000D03*
%TO.P,J1,14,Pin_14_14*%
%TO.N,unconnected-(J1-Pin_14-Pad14)*%
X71000000Y-97700000D03*
%TO.P,J1,15,Pin_15_15*%
%TO.N,Net-(J1-Pin_15)*%
X71000000Y-100240000D03*
%TO.P,J1,16,Pin_16_16*%
%TO.N,Net-(J1-Pin_16)*%
X71000000Y-102780000D03*
%TO.P,J1,17,Pin_17_17*%
%TO.N,Net-(J1-Pin_17)*%
X71000000Y-105320000D03*
%TO.P,J1,18,Pin_18_18*%
%TO.N,Net-(J1-Pin_18)*%
X71000000Y-107860000D03*
%TO.P,J1,19,Pin_19_19*%
%TO.N,Net-(J1-Pin_19)*%
X71000000Y-110400000D03*
%TO.P,J1,20,Pin_20_20*%
%TO.N,unconnected-(J1-Pin_20-Pad20)*%
X71000000Y-112940000D03*
%TO.P,J1,21,Pin_21_21*%
%TO.N,+5V*%
X71000000Y-115480000D03*
%TO.P,J1,22,Pin_22_22*%
%TO.N,GND*%
X71000000Y-118020000D03*
%TD*%
D12*
%TO.N,Net-(J1-Pin_4)*%
X103500000Y-74500000D03*
X122500000Y-77500000D03*
%TO.N,Net-(J1-Pin_5)*%
X107000000Y-78000000D03*
X121500000Y-79000000D03*
%TO.N,Net-(J1-Pin_6)*%
X121000000Y-80500000D03*
X107500000Y-80000000D03*
%TO.N,Net-(J1-Pin_7)*%
X76000000Y-81000000D03*
X119500000Y-82500000D03*
%TO.N,Net-(J1-Pin_15)*%
X87000000Y-111470000D03*
X92000000Y-113000000D03*
%TO.N,Net-(J1-Pin_19)*%
X74500000Y-111470000D03*
X87500000Y-121000000D03*
%TO.N,Net-(J1-Pin_17)*%
X86500000Y-110500000D03*
X104000000Y-121600000D03*
%TO.N,Net-(J1-Pin_18)*%
X93000000Y-120290000D03*
X77000000Y-111000000D03*
%TO.N,Net-(J1-Pin_16)*%
X86000000Y-111470000D03*
X102000000Y-122500000D03*
%TD*%
%TO.N,Net-(J1-Pin_4)*%
D13*
X106000000Y-77000000D02*
X103500000Y-74500000D01*
X122000000Y-77000000D02*
X106000000Y-77000000D01*
X122500000Y-77500000D02*
X122000000Y-77000000D01*
%TO.N,Net-(J1-Pin_5)*%
X121500000Y-79000000D02*
X110500000Y-79000000D01*
X110500000Y-79000000D02*
X109500000Y-78000000D01*
X109500000Y-78000000D02*
X107000000Y-78000000D01*
%TO.N,Net-(J1-Pin_6)*%
X108000000Y-80500000D02*
X107500000Y-80000000D01*
X121000000Y-80500000D02*
X108000000Y-80500000D01*
%TO.N,Net-(J1-Pin_7)*%
X76830000Y-81830000D02*
X76000000Y-81000000D01*
X111330000Y-81830000D02*
X76830000Y-81830000D01*
X112000000Y-82500000D02*
X111330000Y-81830000D01*
X119500000Y-82500000D02*
X112000000Y-82500000D01*
%TO.N,Net-(J1-Pin_15)*%
X88530000Y-113000000D02*
X87000000Y-111470000D01*
X92000000Y-113000000D02*
X88530000Y-113000000D01*
%TO.N,Net-(J1-Pin_19)*%
X84030000Y-121000000D02*
X74500000Y-111470000D01*
X87500000Y-121000000D02*
X84030000Y-121000000D01*
%TO.N,Net-(J1-Pin_17)*%
X87000000Y-110500000D02*
X86500000Y-110500000D01*
X88570000Y-112070000D02*
X87000000Y-110500000D01*
X104000000Y-121600000D02*
X104000000Y-119193654D01*
X96876346Y-112070000D02*
X88570000Y-112070000D01*
X104000000Y-119193654D02*
X96876346Y-112070000D01*
%TO.N,Net-(J1-Pin_18)*%
X77500000Y-111500000D02*
X77000000Y-111000000D01*
X83500000Y-111500000D02*
X77500000Y-111500000D01*
X92290000Y-120290000D02*
X83500000Y-111500000D01*
X93000000Y-120290000D02*
X92290000Y-120290000D01*
%TO.N,Net-(J1-Pin_16)*%
X97030000Y-122500000D02*
X86000000Y-111470000D01*
X102000000Y-122500000D02*
X97030000Y-122500000D01*
%TD*%
M02*
