M48
; DRILL file KiCad 10.0.3 date 2026-06-03T23:53:19
; FORMAT={-:-/ absolute / metric / decimal}
; #@! TF.CreationDate,2026-06-03T23:53:19+01:00
; #@! TF.GenerationSoftware,Kicad,Pcbnew,10.0.3
; #@! TF.FileFunction,Plated,1,2,PTH
FMAT,2
METRIC
; #@! TA.AperFunction,Plated,PTH,ViaDrill
T1C0.300
; #@! TA.AperFunction,Plated,PTH,ComponentDrill
T2C1.000
%
G90
G05
T1
X74.5Y-111.47
X76.0Y-81.0
X77.0Y-111.0
X86.0Y-111.47
X86.5Y-110.5
X87.0Y-111.47
X87.5Y-121.0
X92.0Y-113.0
X93.0Y-120.29
X102.0Y-122.5
X103.5Y-74.5
X104.0Y-121.6
X107.0Y-78.0
X107.5Y-80.0
X119.5Y-82.5
X121.0Y-80.5
X121.5Y-79.0
X122.5Y-77.5
T2
X69.73Y-134.5
X71.0Y-64.68
X71.0Y-67.22
X71.0Y-69.76
X71.0Y-72.3
X71.0Y-74.84
X71.0Y-77.38
X71.0Y-79.92
X71.0Y-82.46
X71.0Y-85.0
X71.0Y-87.54
X71.0Y-90.08
X71.0Y-92.62
X71.0Y-95.16
X71.0Y-97.7
X71.0Y-100.24
X71.0Y-102.78
X71.0Y-105.32
X71.0Y-107.86
X71.0Y-110.4
X71.0Y-112.94
X71.0Y-115.48
X71.0Y-118.02
X72.27Y-134.5
X96.4Y-65.2
X96.4Y-67.74
X96.4Y-70.28
X96.4Y-72.82
X96.4Y-75.36
X96.4Y-77.9
X96.4Y-80.44
X96.4Y-82.98
X96.4Y-85.52
X96.4Y-88.06
X96.4Y-90.6
X96.4Y-93.14
X96.4Y-95.68
X96.4Y-98.22
X96.4Y-100.76
X96.4Y-103.3
X96.4Y-105.84
X96.4Y-108.38
X96.4Y-110.92
X96.4Y-113.46
X96.4Y-116.0
X96.4Y-118.54
X114.15Y-71.5
X116.69Y-71.5
X116.92Y-91.0
X119.23Y-71.5
X119.46Y-91.0
X120.0Y-108.0
X120.0Y-110.54
X120.0Y-113.08
X120.0Y-115.62
X120.0Y-118.16
X120.0Y-120.7
X120.0Y-123.24
X120.0Y-125.78
X121.77Y-71.5
X122.0Y-91.0
X124.31Y-71.5
X126.85Y-71.5
M30
